<svg width="218" height="76" viewBox="0 0 218 76" fill="none" xmlns="http://www.w3.org/2000/svg">
<mask id="path-1-inside-1_3511_12456" fill="white">
<path d="M0 0H9V8H0V0Z"/>
</mask>
<path d="M8 0V8H10V0H8Z" fill="#141414" mask="url(#path-1-inside-1_3511_12456)"/>
<mask id="path-3-inside-2_3511_12456" fill="white">
<path d="M0 8H9V68H0V8Z"/>
</mask>
<path d="M0 8H9V68H0V8Z" fill="#EBECDE"/>
<path d="M0 8V7H-1V8H0ZM0 68H-1V69H0V68ZM0 9H9V7H0V9ZM9 67H0V69H9V67ZM1 68V8H-1V68H1Z" fill="#141414" mask="url(#path-3-inside-2_3511_12456)"/>
<mask id="path-5-inside-3_3511_12456" fill="white">
<path d="M0 68H9V76H0V68Z"/>
</mask>
<path d="M8 68V76H10V68H8Z" fill="#141414" mask="url(#path-5-inside-3_3511_12456)"/>
<mask id="path-7-inside-4_3511_12456" fill="white">
<path d="M9 0H208.6V76H9V0Z"/>
</mask>
<path d="M9 0H208.6V76H9V0Z" fill="#EBECDE"/>
<path d="M9 1H208.6V-1H9V1ZM208.6 75H9V77H208.6V75Z" fill="#141414" mask="url(#path-7-inside-4_3511_12456)"/>
<path d="M74.4297 22.576C74.4724 22.928 74.547 23.2533 74.6537 23.552C74.7604 23.8507 74.9097 24.1067 75.1017 24.32C75.3044 24.5333 75.555 24.704 75.8537 24.832C76.163 24.9493 76.5417 25.008 76.9897 25.008C77.8857 25.008 78.515 24.7573 78.8777 24.256C79.251 23.7547 79.4377 23.0453 79.4377 22.128V14.576H80.9097V22.24C80.9097 23.5947 80.563 24.608 79.8697 25.28C79.1764 25.952 78.227 26.288 77.0217 26.288C75.827 26.288 74.8777 25.9893 74.1737 25.392C73.4697 24.7947 73.059 23.856 72.9417 22.576H74.4297ZM87.8043 24.864C87.5056 25.2267 87.127 25.5413 86.6683 25.808C86.2096 26.064 85.639 26.192 84.9563 26.192C84.5403 26.192 84.1563 26.1387 83.8043 26.032C83.463 25.936 83.1643 25.7867 82.9083 25.584C82.663 25.3707 82.471 25.1093 82.3323 24.8C82.1936 24.4907 82.1243 24.128 82.1243 23.712C82.1243 23.1467 82.2416 22.688 82.4763 22.336C82.7216 21.984 83.0416 21.7067 83.4363 21.504C83.8416 21.3013 84.295 21.1573 84.7963 21.072C85.2976 20.9867 85.815 20.9333 86.3483 20.912L87.7723 20.864V20.544C87.7723 19.84 87.623 19.3333 87.3243 19.024C87.0256 18.7147 86.5403 18.56 85.8683 18.56C85.207 18.56 84.7216 18.672 84.4123 18.896C84.103 19.1093 83.9003 19.408 83.8043 19.792L82.5403 19.648C82.6896 18.8907 83.047 18.3413 83.6123 18C84.1776 17.648 84.9456 17.472 85.9163 17.472C86.5136 17.472 87.015 17.5467 87.4203 17.696C87.8363 17.8347 88.1723 18.0373 88.4283 18.304C88.6843 18.5707 88.8656 18.9013 88.9723 19.296C89.0896 19.6907 89.1483 20.1333 89.1483 20.624V26H87.8043V24.864ZM87.7723 21.856L86.4443 21.904C85.879 21.9253 85.4096 21.9787 85.0363 22.064C84.663 22.1493 84.3643 22.2667 84.1403 22.416C83.927 22.5547 83.7723 22.7307 83.6763 22.944C83.591 23.1573 83.5483 23.4027 83.5483 23.68C83.5483 24.096 83.671 24.432 83.9163 24.688C84.1723 24.9333 84.5883 25.056 85.1643 25.056C85.9856 25.056 86.6256 24.8533 87.0843 24.448C87.543 24.0427 87.7723 23.488 87.7723 22.784V21.856ZM90.9417 17.728H92.3177V18.992C92.691 18.48 93.1017 18.1013 93.5497 17.856C93.9977 17.6 94.4564 17.472 94.9257 17.472C95.5444 17.472 96.0404 17.6053 96.4137 17.872C96.7977 18.1387 97.0804 18.5227 97.2617 19.024C97.635 18.512 98.0617 18.128 98.5417 17.872C99.0217 17.6053 99.5337 17.472 100.078 17.472C100.888 17.472 101.512 17.696 101.95 18.144C102.398 18.5813 102.622 19.2907 102.622 20.272V26H101.23V20.592C101.23 20.2187 101.198 19.9093 101.134 19.664C101.07 19.408 100.974 19.2107 100.846 19.072C100.728 18.9227 100.579 18.8213 100.398 18.768C100.216 18.704 100.008 18.672 99.7737 18.672C99.5284 18.672 99.2724 18.7147 99.0057 18.8C98.739 18.8853 98.4777 19.0347 98.2217 19.248C98.0084 19.4293 97.8324 19.648 97.6937 19.904C97.555 20.16 97.4857 20.4533 97.4857 20.784V26H96.0937V20.608C96.0937 19.8827 95.9657 19.3813 95.7097 19.104C95.4644 18.816 95.107 18.672 94.6377 18.672C94.0937 18.672 93.5817 18.896 93.1017 19.344C92.9204 19.5147 92.7444 19.7333 92.5737 20C92.4137 20.2667 92.3337 20.624 92.3337 21.072V26H90.9417V17.728ZM104.435 17.728H105.827V26H104.435V17.728ZM104.387 14.576H105.875V16.192H104.387V14.576ZM114.829 23.68C114.69 24.48 114.333 25.1093 113.757 25.568C113.191 26.0267 112.375 26.256 111.309 26.256C110.05 26.256 109.085 25.8773 108.413 25.12C107.741 24.352 107.405 23.2853 107.405 21.92C107.405 21.2053 107.501 20.5707 107.693 20.016C107.885 19.4613 108.151 18.9973 108.493 18.624C108.845 18.2507 109.261 17.968 109.741 17.776C110.221 17.5733 110.743 17.472 111.309 17.472C111.949 17.472 112.498 17.5733 112.957 17.776C113.415 17.9787 113.789 18.2613 114.077 18.624C114.375 18.976 114.594 19.3973 114.733 19.888C114.882 20.3787 114.957 20.9173 114.957 21.504V22.208H108.813C108.813 22.624 108.866 23.0133 108.973 23.376C109.09 23.728 109.25 24.0373 109.453 24.304C109.666 24.56 109.927 24.7627 110.237 24.912C110.546 25.0613 110.903 25.136 111.309 25.136C112.002 25.136 112.509 25.008 112.829 24.752C113.149 24.4853 113.367 24.128 113.485 23.68H114.829ZM113.565 21.168C113.565 20.7733 113.522 20.416 113.437 20.096C113.351 19.776 113.218 19.504 113.037 19.28C112.855 19.0453 112.621 18.864 112.333 18.736C112.045 18.608 111.698 18.544 111.293 18.544C110.557 18.544 109.981 18.768 109.565 19.216C109.159 19.664 108.919 20.3147 108.845 21.168H113.565ZM119.916 14.576H121.388V24.688H127.308L127.084 26H119.916V14.576ZM135.384 23.68C135.246 24.48 134.888 25.1093 134.312 25.568C133.747 26.0267 132.931 26.256 131.864 26.256C130.606 26.256 129.64 25.8773 128.968 25.12C128.296 24.352 127.96 23.2853 127.96 21.92C127.96 21.2053 128.056 20.5707 128.248 20.016C128.44 19.4613 128.707 18.9973 129.048 18.624C129.4 18.2507 129.816 17.968 130.296 17.776C130.776 17.5733 131.299 17.472 131.864 17.472C132.504 17.472 133.054 17.5733 133.512 17.776C133.971 17.9787 134.344 18.2613 134.632 18.624C134.931 18.976 135.15 19.3973 135.288 19.888C135.438 20.3787 135.512 20.9173 135.512 21.504V22.208H129.368C129.368 22.624 129.422 23.0133 129.528 23.376C129.646 23.728 129.806 24.0373 130.008 24.304C130.222 24.56 130.483 24.7627 130.792 24.912C131.102 25.0613 131.459 25.136 131.864 25.136C132.558 25.136 133.064 25.008 133.384 24.752C133.704 24.4853 133.923 24.128 134.04 23.68H135.384ZM134.12 21.168C134.12 20.7733 134.078 20.416 133.992 20.096C133.907 19.776 133.774 19.504 133.592 19.28C133.411 19.0453 133.176 18.864 132.888 18.736C132.6 18.608 132.254 18.544 131.848 18.544C131.112 18.544 130.536 18.768 130.12 19.216C129.715 19.664 129.475 20.3147 129.4 21.168H134.12ZM144.189 23.68C144.051 24.48 143.693 25.1093 143.117 25.568C142.552 26.0267 141.736 26.256 140.669 26.256C139.411 26.256 138.445 25.8773 137.773 25.12C137.101 24.352 136.765 23.2853 136.765 21.92C136.765 21.2053 136.861 20.5707 137.053 20.016C137.245 19.4613 137.512 18.9973 137.853 18.624C138.205 18.2507 138.621 17.968 139.101 17.776C139.581 17.5733 140.104 17.472 140.669 17.472C141.309 17.472 141.859 17.5733 142.317 17.776C142.776 17.9787 143.149 18.2613 143.437 18.624C143.736 18.976 143.955 19.3973 144.093 19.888C144.243 20.3787 144.317 20.9173 144.317 21.504V22.208H138.173C138.173 22.624 138.227 23.0133 138.333 23.376C138.451 23.728 138.611 24.0373 138.813 24.304C139.027 24.56 139.288 24.7627 139.597 24.912C139.907 25.0613 140.264 25.136 140.669 25.136C141.363 25.136 141.869 25.008 142.189 24.752C142.509 24.4853 142.728 24.128 142.845 23.68H144.189ZM142.925 21.168C142.925 20.7733 142.883 20.416 142.797 20.096C142.712 19.776 142.579 19.504 142.397 19.28C142.216 19.0453 141.981 18.864 141.693 18.736C141.405 18.608 141.059 18.544 140.653 18.544C139.917 18.544 139.341 18.768 138.925 19.216C138.52 19.664 138.28 20.3147 138.205 21.168H142.925Z" fill="#EBECDE"/>
<path d="M41.881 35.004H45.381C46.109 35.004 46.7577 35.1067 47.327 35.312C47.9057 35.508 48.391 35.8113 48.783 36.222C49.1844 36.6327 49.4924 37.146 49.707 37.762C49.9217 38.378 50.029 39.1013 50.029 39.932C50.029 40.772 49.9124 41.5093 49.679 42.144C49.455 42.7787 49.1284 43.306 48.699 43.726C48.2697 44.146 47.747 44.4633 47.131 44.678C46.515 44.8927 45.8244 45 45.059 45H41.881V35.004ZM45.115 43.88C46.3564 43.88 47.2617 43.5347 47.831 42.844C48.4004 42.144 48.685 41.1827 48.685 39.96C48.685 39.3533 48.6197 38.812 48.489 38.336C48.3677 37.86 48.1717 37.4587 47.901 37.132C47.6397 36.796 47.299 36.544 46.879 36.376C46.459 36.1987 45.9597 36.11 45.381 36.11H43.169V43.88H45.115ZM52.0152 37.762H53.2332V45H52.0152V37.762ZM51.9732 35.004H53.2752V36.418H51.9732V35.004ZM55.4117 37.762H56.6157V38.882C56.8864 38.4807 57.2037 38.1727 57.5677 37.958C57.9317 37.7433 58.319 37.636 58.7297 37.636C58.9817 37.636 59.1964 37.6547 59.3737 37.692L59.2197 38.826C59.1264 38.8073 59.033 38.7933 58.9397 38.784C58.8464 38.7653 58.7437 38.756 58.6317 38.756C58.4077 38.756 58.179 38.798 57.9457 38.882C57.7124 38.9567 57.493 39.0873 57.2877 39.274C57.0824 39.4513 56.919 39.6567 56.7977 39.89C56.6857 40.1233 56.6297 40.394 56.6297 40.702V45H55.4117V37.762ZM66.6528 42.97C66.5315 43.67 66.2188 44.2207 65.7148 44.622C65.2202 45.0233 64.5062 45.224 63.5728 45.224C62.4715 45.224 61.6268 44.8927 61.0388 44.23C60.4508 43.558 60.1568 42.6247 60.1568 41.43C60.1568 40.8047 60.2408 40.2493 60.4088 39.764C60.5768 39.2787 60.8102 38.8727 61.1088 38.546C61.4168 38.2193 61.7808 37.972 62.2008 37.804C62.6208 37.6267 63.0782 37.538 63.5728 37.538C64.1328 37.538 64.6135 37.6267 65.0148 37.804C65.4162 37.9813 65.7428 38.2287 65.9948 38.546C66.2562 38.854 66.4475 39.2227 66.5688 39.652C66.6995 40.0813 66.7648 40.5527 66.7648 41.066V41.682H61.3888C61.3888 42.046 61.4355 42.3867 61.5288 42.704C61.6315 43.012 61.7715 43.2827 61.9488 43.516C62.1355 43.74 62.3642 43.9173 62.6348 44.048C62.9055 44.1787 63.2182 44.244 63.5728 44.244C64.1795 44.244 64.6228 44.132 64.9028 43.908C65.1828 43.6747 65.3742 43.362 65.4768 42.97H66.6528ZM65.5468 40.772C65.5468 40.4267 65.5095 40.114 65.4348 39.834C65.3602 39.554 65.2435 39.316 65.0848 39.12C64.9262 38.9147 64.7208 38.756 64.4688 38.644C64.2168 38.532 63.9135 38.476 63.5588 38.476C62.9148 38.476 62.4108 38.672 62.0468 39.064C61.6922 39.456 61.4822 40.0253 61.4168 40.772H65.5468ZM74.9312 42.55C74.8099 43.3807 74.4925 44.034 73.9792 44.51C73.4659 44.986 72.7425 45.224 71.8092 45.224C71.2585 45.224 70.7685 45.1353 70.3392 44.958C69.9192 44.7807 69.5645 44.5287 69.2752 44.202C68.9952 43.866 68.7805 43.4647 68.6312 42.998C68.4912 42.522 68.4212 41.99 68.4212 41.402C68.4212 40.8233 68.5005 40.296 68.6592 39.82C68.8179 39.344 69.0465 38.938 69.3452 38.602C69.6439 38.266 70.0079 38.0047 70.4372 37.818C70.8665 37.6313 71.3519 37.538 71.8932 37.538C72.7612 37.538 73.4332 37.7527 73.9092 38.182C74.3852 38.602 74.6885 39.1853 74.8192 39.932L73.6012 40.156C73.5545 39.9227 73.4892 39.708 73.4052 39.512C73.3305 39.316 73.2232 39.148 73.0832 39.008C72.9432 38.8587 72.7705 38.7467 72.5652 38.672C72.3692 38.588 72.1312 38.546 71.8512 38.546C71.4685 38.546 71.1419 38.6207 70.8712 38.77C70.6005 38.91 70.3765 39.1107 70.1992 39.372C70.0312 39.624 69.9052 39.9227 69.8212 40.268C69.7465 40.6133 69.7092 40.982 69.7092 41.374C69.7092 41.766 69.7465 42.1347 69.8212 42.48C69.8959 42.8253 70.0172 43.1287 70.1852 43.39C70.3532 43.642 70.5725 43.8427 70.8432 43.992C71.1139 44.1413 71.4452 44.216 71.8372 44.216C72.4252 44.216 72.8592 44.0667 73.1392 43.768C73.4285 43.4693 73.6152 43.0633 73.6992 42.55H74.9312ZM77.1795 38.728H76.0595V37.762H77.1795V35.788H78.3975V37.762H80.3155V38.728H78.3975V42.97C78.3975 43.3247 78.4769 43.6093 78.6355 43.824C78.7942 44.0387 79.0369 44.146 79.3635 44.146C79.5689 44.146 79.7462 44.132 79.8955 44.104C80.0542 44.076 80.1989 44.0387 80.3295 43.992L80.5395 44.93C80.3529 44.9953 80.1475 45.0467 79.9235 45.084C79.7089 45.1307 79.4522 45.154 79.1535 45.154C78.7429 45.154 78.4115 45.0933 78.1595 44.972C77.9075 44.8507 77.7069 44.678 77.5575 44.454C77.4082 44.23 77.3055 43.964 77.2495 43.656C77.2029 43.348 77.1795 43.012 77.1795 42.648V38.728ZM84.936 45.224C84.3853 45.224 83.8953 45.1353 83.466 44.958C83.0366 44.7807 82.6726 44.5287 82.374 44.202C82.0753 43.8753 81.8466 43.474 81.688 42.998C81.5293 42.522 81.45 41.99 81.45 41.402C81.45 40.814 81.534 40.282 81.702 39.806C81.87 39.33 82.108 38.924 82.416 38.588C82.724 38.252 83.0926 37.9953 83.522 37.818C83.9606 37.6313 84.446 37.538 84.978 37.538C85.5193 37.538 86.0046 37.6267 86.434 37.804C86.8633 37.9813 87.2273 38.238 87.526 38.574C87.834 38.9007 88.0673 39.2973 88.226 39.764C88.3846 40.2307 88.464 40.758 88.464 41.346C88.464 41.9433 88.38 42.48 88.212 42.956C88.0533 43.432 87.82 43.838 87.512 44.174C87.2133 44.51 86.8446 44.7713 86.406 44.958C85.9673 45.1353 85.4773 45.224 84.936 45.224ZM84.95 44.216C85.342 44.216 85.678 44.146 85.958 44.006C86.238 43.866 86.4666 43.67 86.644 43.418C86.8306 43.166 86.966 42.8673 87.05 42.522C87.134 42.1673 87.176 41.78 87.176 41.36C87.176 40.9493 87.134 40.5713 87.05 40.226C86.966 39.8807 86.8306 39.5867 86.644 39.344C86.4666 39.092 86.238 38.896 85.958 38.756C85.678 38.616 85.342 38.546 84.95 38.546C84.558 38.546 84.222 38.616 83.942 38.756C83.6713 38.896 83.4426 39.092 83.256 39.344C83.0786 39.5867 82.948 39.8807 82.864 40.226C82.78 40.5713 82.738 40.954 82.738 41.374C82.738 41.794 82.78 42.1767 82.864 42.522C82.948 42.8673 83.0786 43.166 83.256 43.418C83.4333 43.67 83.662 43.866 83.942 44.006C84.222 44.146 84.558 44.216 84.95 44.216ZM90.3762 37.762H91.5802V38.882C91.8508 38.4807 92.1682 38.1727 92.5322 37.958C92.8962 37.7433 93.2835 37.636 93.6942 37.636C93.9462 37.636 94.1608 37.6547 94.3382 37.692L94.1842 38.826C94.0908 38.8073 93.9975 38.7933 93.9042 38.784C93.8108 38.7653 93.7082 38.756 93.5962 38.756C93.3722 38.756 93.1435 38.798 92.9102 38.882C92.6768 38.9567 92.4575 39.0873 92.2522 39.274C92.0468 39.4513 91.8835 39.6567 91.7622 39.89C91.6502 40.1233 91.5942 40.394 91.5942 40.702V45H90.3762V37.762ZM102.428 45.224C101.878 45.224 101.388 45.1353 100.958 44.958C100.529 44.7807 100.165 44.5287 99.8663 44.202C99.5676 43.8753 99.339 43.474 99.1803 42.998C99.0216 42.522 98.9423 41.99 98.9423 41.402C98.9423 40.814 99.0263 40.282 99.1943 39.806C99.3623 39.33 99.6003 38.924 99.9083 38.588C100.216 38.252 100.585 37.9953 101.014 37.818C101.453 37.6313 101.938 37.538 102.47 37.538C103.012 37.538 103.497 37.6267 103.926 37.804C104.356 37.9813 104.72 38.238 105.018 38.574C105.326 38.9007 105.56 39.2973 105.718 39.764C105.877 40.2307 105.956 40.758 105.956 41.346C105.956 41.9433 105.872 42.48 105.704 42.956C105.546 43.432 105.312 43.838 105.004 44.174C104.706 44.51 104.337 44.7713 103.898 44.958C103.46 45.1353 102.97 45.224 102.428 45.224ZM102.442 44.216C102.834 44.216 103.17 44.146 103.45 44.006C103.73 43.866 103.959 43.67 104.136 43.418C104.323 43.166 104.458 42.8673 104.542 42.522C104.626 42.1673 104.668 41.78 104.668 41.36C104.668 40.9493 104.626 40.5713 104.542 40.226C104.458 39.8807 104.323 39.5867 104.136 39.344C103.959 39.092 103.73 38.896 103.45 38.756C103.17 38.616 102.834 38.546 102.442 38.546C102.05 38.546 101.714 38.616 101.434 38.756C101.164 38.896 100.935 39.092 100.748 39.344C100.571 39.5867 100.44 39.8807 100.356 40.226C100.272 40.5713 100.23 40.954 100.23 41.374C100.23 41.794 100.272 42.1767 100.356 42.522C100.44 42.8673 100.571 43.166 100.748 43.418C100.926 43.67 101.154 43.866 101.434 44.006C101.714 44.146 102.05 44.216 102.442 44.216ZM108.303 38.728H107.169V37.762H108.303V37.132C108.303 36.74 108.359 36.404 108.471 36.124C108.592 35.844 108.751 35.6153 108.947 35.438C109.152 35.2513 109.385 35.116 109.647 35.032C109.917 34.9387 110.202 34.892 110.501 34.892C110.715 34.892 110.921 34.906 111.117 34.934C111.313 34.9527 111.518 34.9947 111.733 35.06L111.537 36.012C111.387 35.9653 111.243 35.9373 111.103 35.928C110.972 35.9093 110.841 35.9 110.711 35.9C110.384 35.9 110.104 35.9887 109.871 36.166C109.637 36.334 109.521 36.6467 109.521 37.104V37.762H111.355V38.728H109.521V45H108.303V38.728ZM117.117 42.158C117.229 42.858 117.505 43.3667 117.943 43.684C118.391 43.992 119.054 44.146 119.931 44.146C120.37 44.146 120.734 44.0993 121.023 44.006C121.322 43.9033 121.56 43.7727 121.737 43.614C121.915 43.446 122.041 43.2547 122.115 43.04C122.19 42.816 122.227 42.5827 122.227 42.34C122.227 42.144 122.204 41.9573 122.157 41.78C122.111 41.5933 122.017 41.4253 121.877 41.276C121.747 41.1267 121.56 40.996 121.317 40.884C121.084 40.772 120.781 40.6833 120.407 40.618L119.147 40.394C118.653 40.31 118.214 40.198 117.831 40.058C117.449 39.918 117.122 39.7407 116.851 39.526C116.59 39.302 116.389 39.0267 116.249 38.7C116.119 38.3733 116.053 37.9767 116.053 37.51C116.053 37.0527 116.147 36.6513 116.333 36.306C116.529 35.9607 116.791 35.6713 117.117 35.438C117.444 35.2047 117.831 35.032 118.279 34.92C118.727 34.808 119.213 34.752 119.735 34.752C120.398 34.752 120.949 34.8267 121.387 34.976C121.835 35.116 122.199 35.3073 122.479 35.55C122.759 35.7927 122.969 36.0727 123.109 36.39C123.259 36.698 123.371 37.0153 123.445 37.342L122.241 37.58C122.167 37.3 122.069 37.0527 121.947 36.838C121.835 36.614 121.681 36.432 121.485 36.292C121.299 36.1427 121.065 36.0307 120.785 35.956C120.505 35.8813 120.165 35.844 119.763 35.844C119.306 35.844 118.923 35.886 118.615 35.97C118.307 36.054 118.06 36.1707 117.873 36.32C117.687 36.46 117.551 36.6327 117.467 36.838C117.393 37.034 117.355 37.244 117.355 37.468C117.355 37.7107 117.383 37.9253 117.439 38.112C117.505 38.2893 117.607 38.448 117.747 38.588C117.897 38.7187 118.088 38.8307 118.321 38.924C118.555 39.008 118.844 39.0827 119.189 39.148L120.589 39.4C121.625 39.596 122.386 39.9227 122.871 40.38C123.357 40.828 123.599 41.4907 123.599 42.368C123.599 42.7693 123.52 43.1473 123.361 43.502C123.212 43.8473 122.983 44.1507 122.675 44.412C122.377 44.6733 121.999 44.8787 121.541 45.028C121.084 45.1773 120.547 45.252 119.931 45.252C119.343 45.252 118.807 45.1913 118.321 45.07C117.845 44.958 117.43 44.776 117.075 44.524C116.721 44.272 116.436 43.95 116.221 43.558C116.007 43.166 115.876 42.6993 115.829 42.158H117.117ZM131.756 42.97C131.634 43.67 131.322 44.2207 130.818 44.622C130.323 45.0233 129.609 45.224 128.676 45.224C127.574 45.224 126.73 44.8927 126.142 44.23C125.554 43.558 125.26 42.6247 125.26 41.43C125.26 40.8047 125.344 40.2493 125.512 39.764C125.68 39.2787 125.913 38.8727 126.212 38.546C126.52 38.2193 126.884 37.972 127.304 37.804C127.724 37.6267 128.181 37.538 128.676 37.538C129.236 37.538 129.716 37.6267 130.118 37.804C130.519 37.9813 130.846 38.2287 131.098 38.546C131.359 38.854 131.55 39.2227 131.672 39.652C131.802 40.0813 131.868 40.5527 131.868 41.066V41.682H126.492C126.492 42.046 126.538 42.3867 126.632 42.704C126.734 43.012 126.874 43.2827 127.052 43.516C127.238 43.74 127.467 43.9173 127.738 44.048C128.008 44.1787 128.321 44.244 128.676 44.244C129.282 44.244 129.726 44.132 130.006 43.908C130.286 43.6747 130.477 43.362 130.58 42.97H131.756ZM130.65 40.772C130.65 40.4267 130.612 40.114 130.538 39.834C130.463 39.554 130.346 39.316 130.188 39.12C130.029 38.9147 129.824 38.756 129.572 38.644C129.32 38.532 129.016 38.476 128.662 38.476C128.018 38.476 127.514 38.672 127.15 39.064C126.795 39.456 126.585 40.0253 126.52 40.772H130.65ZM133.762 37.762H134.966V38.882C135.237 38.4807 135.554 38.1727 135.918 37.958C136.282 37.7433 136.669 37.636 137.08 37.636C137.332 37.636 137.547 37.6547 137.724 37.692L137.57 38.826C137.477 38.8073 137.383 38.7933 137.29 38.784C137.197 38.7653 137.094 38.756 136.982 38.756C136.758 38.756 136.529 38.798 136.296 38.882C136.063 38.9567 135.843 39.0873 135.638 39.274C135.433 39.4513 135.269 39.6567 135.148 39.89C135.036 40.1233 134.98 40.394 134.98 40.702V45H133.762V37.762ZM138.684 37.762H140.098L142.254 43.642L144.452 37.762H145.796L142.884 45H141.582L138.684 37.762ZM147.133 37.762H148.351V45H147.133V37.762ZM147.091 35.004H148.393V36.418H147.091V35.004ZM156.802 42.55C156.68 43.3807 156.363 44.034 155.85 44.51C155.336 44.986 154.613 45.224 153.68 45.224C153.129 45.224 152.639 45.1353 152.21 44.958C151.79 44.7807 151.435 44.5287 151.146 44.202C150.866 43.866 150.651 43.4647 150.502 42.998C150.362 42.522 150.292 41.99 150.292 41.402C150.292 40.8233 150.371 40.296 150.53 39.82C150.688 39.344 150.917 38.938 151.216 38.602C151.514 38.266 151.878 38.0047 152.308 37.818C152.737 37.6313 153.222 37.538 153.764 37.538C154.632 37.538 155.304 37.7527 155.78 38.182C156.256 38.602 156.559 39.1853 156.69 39.932L155.472 40.156C155.425 39.9227 155.36 39.708 155.276 39.512C155.201 39.316 155.094 39.148 154.954 39.008C154.814 38.8587 154.641 38.7467 154.436 38.672C154.24 38.588 154.002 38.546 153.722 38.546C153.339 38.546 153.012 38.6207 152.742 38.77C152.471 38.91 152.247 39.1107 152.07 39.372C151.902 39.624 151.776 39.9227 151.692 40.268C151.617 40.6133 151.58 40.982 151.58 41.374C151.58 41.766 151.617 42.1347 151.692 42.48C151.766 42.8253 151.888 43.1287 152.056 43.39C152.224 43.642 152.443 43.8427 152.714 43.992C152.984 44.1413 153.316 44.216 153.708 44.216C154.296 44.216 154.73 44.0667 155.01 43.768C155.299 43.4693 155.486 43.0633 155.57 42.55H156.802ZM164.751 42.97C164.63 43.67 164.317 44.2207 163.813 44.622C163.319 45.0233 162.605 45.224 161.671 45.224C160.57 45.224 159.725 44.8927 159.137 44.23C158.549 43.558 158.255 42.6247 158.255 41.43C158.255 40.8047 158.339 40.2493 158.507 39.764C158.675 39.2787 158.909 38.8727 159.207 38.546C159.515 38.2193 159.879 37.972 160.299 37.804C160.719 37.6267 161.177 37.538 161.671 37.538C162.231 37.538 162.712 37.6267 163.113 37.804C163.515 37.9813 163.841 38.2287 164.093 38.546C164.355 38.854 164.546 39.2227 164.667 39.652C164.798 40.0813 164.863 40.5527 164.863 41.066V41.682H159.487C159.487 42.046 159.534 42.3867 159.627 42.704C159.73 43.012 159.87 43.2827 160.047 43.516C160.234 43.74 160.463 43.9173 160.733 44.048C161.004 44.1787 161.317 44.244 161.671 44.244C162.278 44.244 162.721 44.132 163.001 43.908C163.281 43.6747 163.473 43.362 163.575 42.97H164.751ZM163.645 40.772C163.645 40.4267 163.608 40.114 163.533 39.834C163.459 39.554 163.342 39.316 163.183 39.12C163.025 38.9147 162.819 38.756 162.567 38.644C162.315 38.532 162.012 38.476 161.657 38.476C161.013 38.476 160.509 38.672 160.145 39.064C159.791 39.456 159.581 40.0253 159.515 40.772H163.645ZM167.542 42.886C167.626 43.39 167.836 43.7447 168.172 43.95C168.517 44.146 168.984 44.244 169.572 44.244C170.188 44.244 170.622 44.1413 170.874 43.936C171.135 43.7213 171.266 43.4413 171.266 43.096C171.266 42.956 171.247 42.8253 171.21 42.704C171.182 42.5733 171.121 42.4613 171.028 42.368C170.934 42.2653 170.804 42.1767 170.636 42.102C170.468 42.0273 170.248 41.9667 169.978 41.92L169.054 41.78C168.643 41.7147 168.284 41.6307 167.976 41.528C167.668 41.4253 167.406 41.2947 167.192 41.136C166.977 40.968 166.814 40.7673 166.702 40.534C166.599 40.2913 166.548 40.002 166.548 39.666C166.548 39.33 166.618 39.0313 166.758 38.77C166.907 38.5087 167.108 38.2893 167.36 38.112C167.621 37.9253 167.924 37.7853 168.27 37.692C168.624 37.5893 169.007 37.538 169.418 37.538C169.94 37.538 170.374 37.5893 170.72 37.692C171.074 37.7947 171.364 37.9347 171.588 38.112C171.812 38.2893 171.984 38.4993 172.106 38.742C172.227 38.9847 172.32 39.2413 172.386 39.512L171.28 39.694C171.214 39.498 171.14 39.3253 171.056 39.176C170.972 39.0267 170.86 38.9053 170.72 38.812C170.58 38.7093 170.407 38.6347 170.202 38.588C170.006 38.532 169.758 38.504 169.46 38.504C169.124 38.504 168.844 38.5367 168.62 38.602C168.396 38.658 168.214 38.7373 168.074 38.84C167.943 38.9427 167.85 39.0593 167.794 39.19C167.738 39.3113 167.71 39.442 167.71 39.582C167.71 39.7313 167.728 39.8667 167.766 39.988C167.803 40.1 167.873 40.2027 167.976 40.296C168.078 40.38 168.218 40.4547 168.396 40.52C168.573 40.5853 168.802 40.6413 169.082 40.688L170.132 40.856C170.981 40.996 171.588 41.2387 171.952 41.584C172.325 41.9293 172.512 42.4333 172.512 43.096C172.512 43.404 172.451 43.6887 172.33 43.95C172.208 44.202 172.026 44.426 171.784 44.622C171.541 44.8087 171.238 44.9533 170.874 45.056C170.51 45.168 170.085 45.224 169.6 45.224C169.161 45.224 168.75 45.182 168.368 45.098C167.994 45.014 167.663 44.8833 167.374 44.706C167.084 44.5193 166.851 44.2767 166.674 43.978C166.496 43.6793 166.394 43.3153 166.366 42.886H167.542ZM174.464 43.334H175.752L175.024 46.358H174.044L174.464 43.334ZM87.576 53.004H89.032L92.07 61.334L95.164 53.004H96.55L92.714 63H91.412L87.576 53.004ZM100.063 63.224C99.5124 63.224 99.0224 63.1353 98.5931 62.958C98.1637 62.7807 97.7997 62.5287 97.5011 62.202C97.2024 61.8753 96.9737 61.474 96.8151 60.998C96.6564 60.522 96.5771 59.99 96.5771 59.402C96.5771 58.814 96.6611 58.282 96.8291 57.806C96.9971 57.33 97.2351 56.924 97.5431 56.588C97.8511 56.252 98.2197 55.9953 98.6491 55.818C99.0877 55.6313 99.5731 55.538 100.105 55.538C100.646 55.538 101.132 55.6267 101.561 55.804C101.99 55.9813 102.354 56.238 102.653 56.574C102.961 56.9007 103.194 57.2973 103.353 57.764C103.512 58.2307 103.591 58.758 103.591 59.346C103.591 59.9433 103.507 60.48 103.339 60.956C103.18 61.432 102.947 61.838 102.639 62.174C102.34 62.51 101.972 62.7713 101.533 62.958C101.094 63.1353 100.604 63.224 100.063 63.224ZM100.077 62.216C100.469 62.216 100.805 62.146 101.085 62.006C101.365 61.866 101.594 61.67 101.771 61.418C101.958 61.166 102.093 60.8673 102.177 60.522C102.261 60.1673 102.303 59.78 102.303 59.36C102.303 58.9493 102.261 58.5713 102.177 58.226C102.093 57.8807 101.958 57.5867 101.771 57.344C101.594 57.092 101.365 56.896 101.085 56.756C100.805 56.616 100.469 56.546 100.077 56.546C99.6851 56.546 99.3491 56.616 99.0691 56.756C98.7984 56.896 98.5697 57.092 98.3831 57.344C98.2057 57.5867 98.0751 57.8807 97.9911 58.226C97.9071 58.5713 97.8651 58.954 97.8651 59.374C97.8651 59.794 97.9071 60.1767 97.9911 60.522C98.0751 60.8673 98.2057 61.166 98.3831 61.418C98.5604 61.67 98.7891 61.866 99.0691 62.006C99.3491 62.146 99.6851 62.216 100.077 62.216ZM105.503 55.762H106.707V56.882C106.978 56.4807 107.295 56.1727 107.659 55.958C108.023 55.7433 108.411 55.636 108.821 55.636C109.073 55.636 109.288 55.6547 109.465 55.692L109.311 56.826C109.218 56.8073 109.125 56.7933 109.031 56.784C108.938 56.7653 108.835 56.756 108.723 56.756C108.499 56.756 108.271 56.798 108.037 56.882C107.804 56.9567 107.585 57.0873 107.379 57.274C107.174 57.4513 107.011 57.6567 106.889 57.89C106.777 58.1233 106.721 58.394 106.721 58.702V63H105.503V55.762ZM111.686 56.728H110.566V55.762H111.686V53.788H112.904V55.762H114.822V56.728H112.904V60.97C112.904 61.3247 112.983 61.6093 113.142 61.824C113.3 62.0387 113.543 62.146 113.87 62.146C114.075 62.146 114.252 62.132 114.402 62.104C114.56 62.076 114.705 62.0387 114.836 61.992L115.046 62.93C114.859 62.9953 114.654 63.0467 114.43 63.084C114.215 63.1307 113.958 63.154 113.66 63.154C113.249 63.154 112.918 63.0933 112.666 62.972C112.414 62.8507 112.213 62.678 112.064 62.454C111.914 62.23 111.812 61.964 111.756 61.656C111.709 61.348 111.686 61.012 111.686 60.648V56.728ZM122.452 60.97C122.331 61.67 122.018 62.2207 121.514 62.622C121.019 63.0233 120.305 63.224 119.372 63.224C118.271 63.224 117.426 62.8927 116.838 62.23C116.25 61.558 115.956 60.6247 115.956 59.43C115.956 58.8047 116.04 58.2493 116.208 57.764C116.376 57.2787 116.609 56.8727 116.908 56.546C117.216 56.2193 117.58 55.972 118 55.804C118.42 55.6267 118.877 55.538 119.372 55.538C119.932 55.538 120.413 55.6267 120.814 55.804C121.215 55.9813 121.542 56.2287 121.794 56.546C122.055 56.854 122.247 57.2227 122.368 57.652C122.499 58.0813 122.564 58.5527 122.564 59.066V59.682H117.188C117.188 60.046 117.235 60.3867 117.328 60.704C117.431 61.012 117.571 61.2827 117.748 61.516C117.935 61.74 118.163 61.9173 118.434 62.048C118.705 62.1787 119.017 62.244 119.372 62.244C119.979 62.244 120.422 62.132 120.702 61.908C120.982 61.6747 121.173 61.362 121.276 60.97H122.452ZM121.346 58.772C121.346 58.4267 121.309 58.114 121.234 57.834C121.159 57.554 121.043 57.316 120.884 57.12C120.725 56.9147 120.52 56.756 120.268 56.644C120.016 56.532 119.713 56.476 119.358 56.476C118.714 56.476 118.21 56.672 117.846 57.064C117.491 57.456 117.281 58.0253 117.216 58.772H121.346ZM125.993 59.192L123.571 55.762H124.999L126.721 58.324L128.513 55.762H129.815L127.435 59.178L130.067 63H128.653L126.665 60.074L124.663 63H123.319L125.993 59.192Z" fill="#EBECDE"/>
<mask id="path-11-inside-5_3511_12456" fill="white">
<path d="M217.6 0H208.6V8H217.6V0Z"/>
</mask>
<path d="M209.6 0V8H207.6V0H209.6Z" fill="#141414" mask="url(#path-11-inside-5_3511_12456)"/>
<mask id="path-13-inside-6_3511_12456" fill="white">
<path d="M217.6 8H208.6V68H217.6V8Z"/>
</mask>
<path d="M217.6 8H208.6V68H217.6V8Z" fill="#EBECDE"/>
<path d="M217.6 8V7H218.6V8H217.6ZM217.6 68H218.6V69H217.6V68ZM217.6 9H208.6V7H217.6V9ZM208.6 67H217.6V69H208.6V67ZM216.6 68V8H218.6V68H216.6Z" fill="#141414" mask="url(#path-13-inside-6_3511_12456)"/>
<mask id="path-15-inside-7_3511_12456" fill="white">
<path d="M217.6 68H208.6V76H217.6V68Z"/>
</mask>
<path d="M209.6 68V76H207.6V68H209.6Z" fill="#141414" mask="url(#path-15-inside-7_3511_12456)"/>
</svg>
