<svg width="177" height="44" viewBox="0 0 177 44" fill="none" xmlns="http://www.w3.org/2000/svg">
<mask id="path-1-inside-1_3264_4568" fill="white">
<path fill-rule="evenodd" clip-rule="evenodd" d="M4.4099 0.0501709H171.84V4.87173H176.246V38.6285H171.84V43.4505H4.41016V38.6285H0.00390625V4.87173H4.4099V0.0501709Z"/>
</mask>
<path fill-rule="evenodd" clip-rule="evenodd" d="M4.4099 0.0501709H171.84V4.87173H176.246V38.6285H171.84V43.4505H4.41016V38.6285H0.00390625V4.87173H4.4099V0.0501709Z" fill="#EBECDE"/>
<path d="M171.84 0.0501709H172.902V-1.01153H171.84V0.0501709ZM4.4099 0.0501709V-1.01153H3.3482V0.0501709H4.4099ZM171.84 4.87173H170.778V5.93343H171.84V4.87173ZM176.246 4.87173H177.308V3.81003H176.246V4.87173ZM176.246 38.6285V39.6902H177.308V38.6285H176.246ZM171.84 38.6285V37.5668H170.778V38.6285H171.84ZM171.84 43.4505V44.5122H172.902V43.4505H171.84ZM4.41016 43.4505H3.34846V44.5122H4.41016V43.4505ZM4.41016 38.6285H5.47186V37.5668H4.41016V38.6285ZM0.00390625 38.6285H-1.05779V39.6902H0.00390625V38.6285ZM0.00390625 4.87173V3.81003H-1.05779V4.87173H0.00390625ZM4.4099 4.87173V5.93343H5.4716V4.87173H4.4099ZM171.84 -1.01153H4.4099V1.11187H171.84V-1.01153ZM172.902 4.87173V0.0501709H170.778V4.87173H172.902ZM176.246 3.81003H171.84V5.93343H176.246V3.81003ZM177.308 38.6285V4.87173H175.184V38.6285H177.308ZM171.84 39.6902H176.246V37.5668H171.84V39.6902ZM170.778 38.6285V43.4505H172.902V38.6285H170.778ZM171.84 42.3888H4.41016V44.5122H171.84V42.3888ZM5.47186 43.4505V38.6285H3.34846V43.4505H5.47186ZM0.00390625 39.6902H4.41016V37.5668H0.00390625V39.6902ZM-1.05779 4.87173V38.6285H1.06561V4.87173H-1.05779ZM4.4099 3.81003H0.00390625V5.93343H4.4099V3.81003ZM3.3482 0.0501709V4.87173H5.4716V0.0501709H3.3482Z" fill="#141414" mask="url(#path-1-inside-1_3264_4568)"/>
</svg>
