<svg width="96" height="17" viewBox="0 0 96 17" fill="none" xmlns="http://www.w3.org/2000/svg">
<rect width="16" height="16" transform="translate(0 0.0986328)" fill="white" fill-opacity="0.01" style="mix-blend-mode:multiply"/>
<path d="M7.99965 1.09863L5.72465 5.70863L0.639648 6.44363L4.31965 10.0336L3.44965 15.0986L7.99965 12.7086L12.5496 15.0986L11.6796 10.0336L15.3596 6.44863L10.2746 5.70863L7.99965 1.09863Z" fill="#161616"/>
<rect width="16" height="16" transform="translate(20 0.0986328)" fill="white" fill-opacity="0.01" style="mix-blend-mode:multiply"/>
<path d="M27.9996 1.09863L25.7246 5.70863L20.6396 6.44363L24.3196 10.0336L23.4496 15.0986L27.9996 12.7086L32.5496 15.0986L31.6796 10.0336L35.3596 6.44863L30.2746 5.70863L27.9996 1.09863Z" fill="#161616"/>
<rect width="16" height="16" transform="translate(40 0.0986328)" fill="white" fill-opacity="0.01" style="mix-blend-mode:multiply"/>
<path d="M47.9996 1.09863L45.7246 5.70863L40.6396 6.44363L44.3196 10.0336L43.4496 15.0986L47.9996 12.7086L52.5496 15.0986L51.6796 10.0336L55.3596 6.44863L50.2746 5.70863L47.9996 1.09863Z" fill="#161616"/>
<rect width="16" height="16" transform="translate(60 0.0986328)" fill="white" fill-opacity="0.01" style="mix-blend-mode:multiply"/>
<path d="M67.9996 1.09863L65.7246 5.70863L60.6396 6.44363L64.3196 10.0336L63.4496 15.0986L67.9996 12.7086L72.5496 15.0986L71.6796 10.0336L75.3596 6.44863L70.2746 5.70863L67.9996 1.09863Z" fill="#161616"/>
<rect width="16" height="16" transform="translate(80 0.0986328)" fill="white" fill-opacity="0.01" style="mix-blend-mode:multiply"/>
<path d="M87.9996 1.09863L85.7246 5.70863L80.6396 6.44363L84.3196 10.0336L83.4496 15.0986L87.9996 12.7086L92.5496 15.0986L91.6796 10.0336L95.3596 6.44863L90.2746 5.70863L87.9996 1.09863Z" fill="#161616"/>
</svg>
