<svg width="32" height="32" viewBox="0 0 32 32" fill="none" xmlns="http://www.w3.org/2000/svg">
<g clip-path="url(#clip0_4741_21303)">
<path d="M31.2523 16.3048C31.2523 14.9937 31.1459 14.037 30.9157 13.0449H15.9451V18.9622H24.7325C24.5554 20.4328 23.5987 22.6474 21.4726 24.1355L21.4428 24.3336L26.1763 28.0005L26.5042 28.0333C29.516 25.2517 31.2523 21.1591 31.2523 16.3048Z" fill="#4285F4"/>
<path d="M15.945 31.893C20.2501 31.893 23.8642 30.4756 26.5041 28.0308L21.4725 24.133C20.1261 25.072 18.3189 25.7275 15.945 25.7275C11.7284 25.7275 8.14966 22.9461 6.87394 19.1016L6.68694 19.1174L1.76505 22.9265L1.70068 23.1055C4.32273 28.3141 9.70862 31.893 15.945 31.893Z" fill="#34A853"/>
<path d="M6.87402 19.0977C6.5374 18.1056 6.3426 17.0425 6.3426 15.9442C6.3426 14.8457 6.53741 13.7827 6.85631 12.7906L6.84739 12.5793L1.86382 8.70898L1.70076 8.78654C0.620092 10.948 0 13.3752 0 15.9442C0 18.5131 0.620092 20.9402 1.70076 23.1017L6.87402 19.0977Z" fill="#FBBC05"/>
<path d="M15.945 6.16537C18.939 6.16537 20.9587 7.45869 22.1103 8.53948L26.6104 4.14571C23.8466 1.57679 20.2501 0 15.945 0C9.70862 0 4.32273 3.57875 1.70068 8.78742L6.85623 12.7915C8.14966 8.94693 11.7284 6.16537 15.945 6.16537Z" fill="#EB4335"/>
</g>
<defs>
<clipPath id="clip0_4741_21303">
<rect width="31.2672" height="32" fill="white"/>
</clipPath>
</defs>
</svg>
