<svg width="13" height="13" viewBox="0 0 13 13" fill="none" xmlns="http://www.w3.org/2000/svg">
<path d="M6.72898 0.645567L8.20347 4.01084C8.31228 4.25918 8.54665 4.42946 8.81645 4.4562L12.4727 4.81859C12.6895 4.84009 12.777 5.10932 12.6142 5.25415L9.86926 7.6964C9.6667 7.87662 9.57718 8.15214 9.63512 8.417L10.4203 12.0062C10.4669 12.2191 10.2378 12.3855 10.0498 12.2754L6.87884 10.4196C6.64485 10.2826 6.35515 10.2826 6.12116 10.4196L2.95021 12.2754C2.76217 12.3855 2.53315 12.2191 2.57971 12.0062L3.36488 8.417C3.42282 8.15214 3.3333 7.87662 3.13074 7.6964L0.385816 5.25415C0.223041 5.10932 0.310524 4.84009 0.527336 4.81859L4.18355 4.4562C4.45335 4.42946 4.68772 4.25918 4.79652 4.01084L6.27101 0.645569C6.35845 0.446007 6.64155 0.446008 6.72898 0.645567Z" fill="#C1FF72" stroke="#232323" stroke-width="0.5"/>
</svg>
