<svg xmlns="http://www.w3.org/2000/svg" width="400" height="400" viewBox="0 0 400 400"><rect width="100%" height="100%" fill="#EEE"/><path fill="#31343C" d="M100.195 212.28h30.36v-32.63q0-4.63.62-10.21zm45.19 0h12.56v9.87q0 1.38-.9 2.38-.89 1-2.55 1h-9.11v24.36h-14.83v-24.36h-42.09q-1.73 0-3.04-1.07t-1.65-2.65l-1.8-8.63 47.27-63.13h16.14zm92.67-12.28q0 13.04-2.79 22.67-2.8 9.62-7.73 15.9-4.94 6.28-11.66 9.35-6.73 3.07-14.53 3.07-7.79 0-14.45-3.07t-11.56-9.35-7.66-15.9q-2.76-9.63-2.76-22.67 0-13.11 2.76-22.7t7.66-15.87 11.56-9.35 14.45-3.07q7.8 0 14.53 3.07 6.72 3.07 11.66 9.35 4.93 6.28 7.73 15.87 2.79 9.59 2.79 22.7m-17.59 0q0-10.83-1.59-17.94-1.59-7.1-4.25-11.31-2.65-4.21-6.1-5.9t-7.18-1.69q-3.65 0-7.07 1.69t-6.04 5.9-4.17 11.31q-1.55 7.11-1.55 17.94 0 10.84 1.55 17.94 1.55 7.11 4.17 11.32t6.04 5.9 7.07 1.69q3.73 0 7.18-1.69t6.1-5.9q2.66-4.21 4.25-11.32 1.59-7.1 1.59-17.94m39.81 12.28h30.36v-32.63q0-4.63.62-10.21zm45.19 0h12.56v9.87q0 1.38-.9 2.38-.89 1-2.55 1h-9.11v24.36h-14.83v-24.36h-42.09q-1.73 0-3.04-1.07t-1.65-2.65l-1.8-8.63 47.27-63.13h16.14z"/></svg>