<svg width="222" height="54" viewBox="0 0 222 54" fill="none" xmlns="http://www.w3.org/2000/svg">
<path fill-rule="evenodd" clip-rule="evenodd" d="M14.7273 0C6.59362 0 0 6.59362 0 14.7273V39.2727C0 47.4064 6.59362 54 14.7273 54H39.2727C47.4064 54 54 47.4064 54 39.2727V14.7273C54 6.59362 47.4064 0 39.2727 0H14.7273ZM12.2488 28.8075L6.22332 18.3686C5.78053 17.6045 6.33329 16.6466 7.21599 16.6466H19.2669C20.1496 16.6466 20.7024 17.6045 20.2625 18.3686L14.237 28.8046C13.7942 29.5715 12.6887 29.5715 12.2488 28.8046V28.8075ZM25.9316 32.1246L20.9769 40.7055H20.9741C20.5342 41.4724 19.4286 41.4724 18.9858 40.7055L14.0312 32.1246C13.5913 31.3605 14.144 30.4026 15.0267 30.4026H24.936C25.8216 30.4026 26.3744 31.3576 25.9316 32.1246ZM27.9196 32.1246L32.8743 40.7055H32.8772C33.3171 41.4724 34.4226 41.4724 34.8654 40.7055L39.8201 32.1246C40.26 31.3605 39.7072 30.4026 38.8245 30.4026H28.9152C28.0296 30.4026 27.4768 31.3576 27.9196 32.1246ZM47.6401 18.3715L41.6146 28.8076L41.6117 28.8047C41.1718 29.5716 40.0663 29.5716 39.6235 28.8047L33.598 18.3686C33.1581 17.6046 33.7109 16.6467 34.5936 16.6467H46.6445C47.5301 16.6467 48.08 17.6046 47.6401 18.3715Z" fill="#141414"/>
<path d="M88.5286 35.6596L86.078 26.1399L83.6274 35.6596H78.2863L73.6364 19.1651H79.3859L81.3967 28.8733L83.9416 19.2908H88.4658L91.0107 28.8733L93.0214 19.1651H98.4882L93.8383 35.6596H88.5286Z" fill="#141414"/>
<path d="M107.002 36.1623C104.321 36.1623 102.237 35.4083 100.75 33.9002C99.2629 32.3712 98.5193 30.2348 98.5193 27.4909C98.5193 24.7052 99.2734 22.5373 100.781 20.9873C102.31 19.4374 104.426 18.6624 107.128 18.6624C109.809 18.6624 111.893 19.4269 113.38 20.9559C114.867 22.4849 115.611 24.6214 115.611 27.3652C115.611 30.13 114.857 32.2874 113.349 33.8374C111.841 35.3873 109.725 36.1623 107.002 36.1623ZM107.065 31.6695C108.929 31.6695 109.861 30.2452 109.861 27.3967C109.861 24.569 108.929 23.1552 107.065 23.1552C105.201 23.1552 104.269 24.5795 104.269 27.4281C104.269 30.2557 105.201 31.6695 107.065 31.6695Z" fill="#141414"/>
<path d="M117.654 35.6596V19.1651H123.183V21.1759C123.749 20.4009 124.409 19.8249 125.163 19.4479C125.917 19.0708 126.796 18.8823 127.802 18.8823C128.388 18.8823 128.922 18.9347 129.404 19.0394L128.776 23.9092C128.336 23.7836 127.749 23.7207 127.016 23.7207C125.906 23.7207 125.048 23.9407 124.44 24.3805C123.707 24.9251 123.34 25.8676 123.34 27.2081V35.6596H117.654Z" fill="#141414"/>
<path d="M142.234 35.6596L138.087 28.1193L136.202 29.8473V35.6596H130.641V13.2271H136.202V24.192L141.386 19.1651H147.764L141.951 24.7261L148.235 35.6596H142.234Z" fill="#141414"/>
<path d="M163.848 30.35C163.513 32.2769 162.685 33.7327 161.366 34.7171C160.046 35.6806 158.255 36.1623 155.993 36.1623C153.27 36.1623 151.197 35.4397 149.772 33.9945C148.348 32.5492 147.636 30.4442 147.636 27.6794C147.636 24.8518 148.38 22.642 149.867 21.0502C151.354 19.4583 153.417 18.6624 156.056 18.6624C158.549 18.6624 160.486 19.3955 161.868 20.8617C163.272 22.3069 163.973 24.3386 163.973 26.9568V28.7476H153.103C153.187 29.9206 153.448 30.7689 153.888 31.2925C154.328 31.8161 155.009 32.078 155.93 32.078C157.355 32.078 158.224 31.502 158.538 30.35H163.848ZM158.727 25.5116C158.685 24.5271 158.444 23.815 158.004 23.3751C157.585 22.9143 156.936 22.6839 156.056 22.6839C154.297 22.6839 153.312 23.6265 153.103 25.5116H158.727Z" fill="#141414"/>
<path d="M175.774 35.6596V33.8688C175.041 34.6438 174.277 35.2093 173.481 35.5654C172.685 35.9215 171.784 36.0995 170.779 36.0995C169.061 36.0995 167.7 35.6596 166.695 34.7799C165.71 33.8793 165.218 32.6644 165.218 31.1354C165.218 29.3969 165.867 28.0774 167.166 27.1767C168.464 26.2551 170.454 25.7315 173.135 25.6058L175.617 25.4801V24.8204C175.617 23.3751 174.916 22.6525 173.512 22.6525C172.214 22.6525 171.47 23.1971 171.282 24.2863L166.16 23.8778C166.726 20.4009 169.26 18.6624 173.764 18.6624C176.256 18.6624 178.099 19.2175 179.293 20.3276C180.487 21.4377 181.084 23.1343 181.084 25.4173V35.6596H175.774ZM175.586 28.6848L173.764 28.7791C172.695 28.8419 171.91 29.0304 171.407 29.3446C170.926 29.6378 170.685 30.0881 170.685 30.6956C170.685 31.7009 171.303 32.2036 172.538 32.2036C173.481 32.2036 174.224 31.9418 174.769 31.4182C175.314 30.8736 175.586 30.151 175.586 29.2503V28.6848Z" fill="#141414"/>
<path d="M183.439 35.6596V19.1651H188.969V21.1759C189.534 20.4009 190.194 19.8249 190.948 19.4479C191.702 19.0708 192.582 18.8823 193.587 18.8823C194.174 18.8823 194.708 18.9347 195.19 19.0394L194.561 23.9092C194.121 23.7836 193.535 23.7207 192.802 23.7207C191.692 23.7207 190.833 23.9407 190.226 24.3805C189.492 24.9251 189.126 25.8676 189.126 27.2081V35.6596H183.439Z" fill="#141414"/>
<path d="M196.426 35.6596V13.2271H202.113V35.6596H196.426Z" fill="#141414"/>
<path d="M209.968 34.4029L203.213 19.1651H209.371L212.513 28.3706L215.403 19.1651H221.31L214.712 35.7225C214.084 37.2934 213.487 38.5082 212.921 39.367C212.377 40.2257 211.759 40.8332 211.068 41.1892C210.376 41.5663 209.455 41.7548 208.303 41.7548C207.067 41.7548 205.821 41.5558 204.564 41.1578L205.412 37.042C206.25 37.2096 206.879 37.2934 207.297 37.2934C207.884 37.2934 208.366 37.1363 208.743 36.8221C209.12 36.5289 209.413 36.0576 209.622 35.4083L209.968 34.4029Z" fill="#141414"/>
</svg>
