<svg width="148" height="37" viewBox="0 0 148 37" fill="none" xmlns="http://www.w3.org/2000/svg">
<path fill-rule="evenodd" clip-rule="evenodd" d="M9.81818 0.5C4.39575 0.5 0 4.89575 0 10.3182V26.6818C0 32.1042 4.39575 36.5 9.81818 36.5H26.1818C31.6043 36.5 36 32.1042 36 26.6818V10.3182C36 4.89575 31.6043 0.5 26.1818 0.5H9.81818ZM8.16585 19.705L4.14888 12.7457C3.85368 12.2364 4.2222 11.5977 4.81066 11.5977H12.8446C13.4331 11.5977 13.8016 12.2364 13.5083 12.7457L9.49134 19.7031C9.19614 20.2144 8.45912 20.2144 8.16585 19.7031V19.705ZM17.2877 21.9164L13.9846 27.637H13.9827C13.6894 28.1483 12.9524 28.1483 12.6572 27.637L9.35411 21.9164C9.06085 21.407 9.42936 20.7684 10.0178 20.7684H16.624C17.2144 20.7684 17.5829 21.4051 17.2877 21.9164ZM18.6131 21.9164L21.9162 27.637H21.9181C22.2114 28.1483 22.9484 28.1483 23.2436 27.637L26.5467 21.9164C26.84 21.407 26.4715 20.7684 25.883 20.7684H19.2768C18.6864 20.7684 18.3179 21.4051 18.6131 21.9164ZM31.76 12.7477L27.7431 19.705L27.7411 19.7031C27.4479 20.2144 26.7109 20.2144 26.4157 19.7031L22.3987 12.7458C22.1054 12.2364 22.4739 11.5978 23.0624 11.5978H31.0963C31.6867 11.5978 32.0533 12.2364 31.76 12.7477Z" fill="#EBECDE"/>
<path d="M59.0191 24.2731L57.3853 17.9266L55.7516 24.2731H52.1909L49.0909 13.2767H52.924L54.2645 19.7489L55.961 13.3605H58.9772L60.6738 19.7489L62.0143 13.2767H65.6588L62.5589 24.2731H59.0191Z" fill="#EBECDE"/>
<path d="M71.3348 24.6082C69.5475 24.6082 68.1581 24.1055 67.1667 23.1001C66.1753 22.0808 65.6796 20.6565 65.6796 18.8273C65.6796 16.9701 66.1823 15.5249 67.1876 14.4916C68.207 13.4583 69.6173 12.9416 71.4186 12.9416C73.206 12.9416 74.5954 13.4513 75.5868 14.4706C76.5782 15.49 77.0739 16.9143 77.0739 18.7435C77.0739 20.5867 76.5712 22.0249 75.5658 23.0583C74.5604 24.0916 73.1501 24.6082 71.3348 24.6082ZM71.3767 21.613C72.6195 21.613 73.2409 20.6635 73.2409 18.7644C73.2409 16.8793 72.6195 15.9368 71.3767 15.9368C70.134 15.9368 69.5126 16.8863 69.5126 18.7854C69.5126 20.6705 70.134 21.613 71.3767 21.613Z" fill="#EBECDE"/>
<path d="M78.4358 24.2731V13.2767H82.1222V14.6172C82.4993 14.1006 82.9391 13.7166 83.4418 13.4652C83.9445 13.2139 84.531 13.0882 85.2012 13.0882C85.5922 13.0882 85.9483 13.1231 86.2694 13.1929L85.8505 16.4395C85.5573 16.3557 85.1663 16.3138 84.6776 16.3138C83.9375 16.3138 83.365 16.4604 82.9601 16.7537C82.4713 17.1167 82.227 17.7451 82.227 18.6388V24.2731H78.4358Z" fill="#EBECDE"/>
<path d="M94.8227 24.2731L92.0579 19.2462L90.8012 20.3982V24.2731H87.0938V9.31804H90.8012V16.628L94.2572 13.2767H98.5091L94.6342 16.9841L98.8233 24.2731H94.8227Z" fill="#EBECDE"/>
<path d="M109.232 20.7333C109.008 22.018 108.457 22.9884 107.577 23.6447C106.697 24.2871 105.504 24.6082 103.996 24.6082C102.18 24.6082 100.798 24.1265 99.8483 23.163C98.8988 22.1995 98.424 20.7961 98.424 18.9529C98.424 17.0679 98.9197 15.5947 99.9111 14.5335C100.903 13.4722 102.278 12.9416 104.037 12.9416C105.699 12.9416 106.991 13.4303 107.912 14.4078C108.848 15.3713 109.316 16.7257 109.316 18.4712V19.6651H102.069C102.124 20.4471 102.299 21.0126 102.592 21.3617C102.885 21.7108 103.339 21.8853 103.954 21.8853C104.903 21.8853 105.483 21.5013 105.692 20.7333H109.232ZM105.818 17.5077C105.79 16.8514 105.629 16.3767 105.336 16.0834C105.057 15.7762 104.624 15.6226 104.037 15.6226C102.864 15.6226 102.208 16.251 102.069 17.5077H105.818Z" fill="#EBECDE"/>
<path d="M117.183 24.2731V23.0792C116.694 23.5959 116.185 23.9729 115.654 24.2103C115.123 24.4476 114.523 24.5663 113.853 24.5663C112.708 24.5663 111.8 24.2731 111.13 23.6866C110.473 23.0862 110.145 22.2763 110.145 21.2569C110.145 20.098 110.578 19.2183 111.444 18.6178C112.31 18.0034 113.636 17.6543 115.424 17.5705L117.078 17.4868V17.0469C117.078 16.0834 116.61 15.6017 115.675 15.6017C114.809 15.6017 114.313 15.9647 114.188 16.6908L110.774 16.4185C111.151 14.1006 112.84 12.9416 115.842 12.9416C117.504 12.9416 118.733 13.3116 119.529 14.0517C120.325 14.7918 120.723 15.9228 120.723 17.4449V24.2731H117.183ZM117.057 19.6232L115.842 19.686C115.13 19.7279 114.607 19.8536 114.272 20.0631C113.95 20.2585 113.79 20.5588 113.79 20.9637C113.79 21.634 114.202 21.9691 115.026 21.9691C115.654 21.9691 116.15 21.7945 116.513 21.4455C116.876 21.0824 117.057 20.6007 117.057 20.0002V19.6232Z" fill="#EBECDE"/>
<path d="M122.293 24.2731V13.2767H125.979V14.6172C126.356 14.1006 126.796 13.7166 127.299 13.4652C127.801 13.2139 128.388 13.0882 129.058 13.0882C129.449 13.0882 129.805 13.1231 130.126 13.1929L129.708 16.4395C129.414 16.3557 129.023 16.3138 128.535 16.3138C127.795 16.3138 127.222 16.4604 126.817 16.7537C126.328 17.1167 126.084 17.7451 126.084 18.6388V24.2731H122.293Z" fill="#EBECDE"/>
<path d="M130.951 24.2731V9.31804H134.742V24.2731H130.951Z" fill="#EBECDE"/>
<path d="M139.979 23.4353L135.475 13.2767H139.581L141.675 19.4137L143.602 13.2767H147.54L143.141 24.315C142.723 25.3623 142.325 26.1721 141.948 26.7447C141.584 27.3172 141.173 27.7221 140.712 27.9595C140.251 28.2108 139.637 28.3365 138.869 28.3365C138.045 28.3365 137.214 28.2039 136.376 27.9385L136.942 25.1947C137.5 25.3064 137.919 25.3623 138.198 25.3623C138.589 25.3623 138.91 25.2575 139.162 25.0481C139.413 24.8526 139.609 24.5384 139.748 24.1055L139.979 23.4353Z" fill="#EBECDE"/>
</svg>
